<svg xmlns="http://www.w3.org/2000/svg" width="1008" height="420" viewBox="0 0 1008 420" role="img" aria-labelledby="title desc">
<title id="title">Puget Sound Evening palette</title>
<desc id="desc">Seven coastal accent colors above the Shore background, Driftwood foreground, and Horizon blue scales. Hex values are listed below each accent.</desc>
<rect width="1008" height="420" fill="#18242F"/>
<g font-family="ui-sans-serif, system-ui, -apple-system, Segoe UI, sans-serif" fill="#C1CCD3">
<text x="32" y="48" font-size="26" font-weight="600">Evening</text>
<text x="32" y="76" font-size="14" fill="#9FADB3">Blue-gray dusk · softened accents</text>
<rect x="32" y="104" width="128" height="112" fill="#E98C84"/>
<text x="32" y="242" font-size="16" font-weight="600">Madrona</text>
<text x="32" y="264" font-family="ui-monospace, monospace" font-size="13" fill="#9FADB3">#E98C84</text>
<rect x="168" y="104" width="128" height="112" fill="#D79C52"/>
<text x="168" y="242" font-size="16" font-weight="600">Copper</text>
<text x="168" y="264" font-family="ui-monospace, monospace" font-size="13" fill="#9FADB3">#D79C52</text>
<rect x="304" y="104" width="128" height="112" fill="#D1BD88"/>
<text x="304" y="242" font-size="16" font-weight="600">Sand</text>
<text x="304" y="264" font-family="ui-monospace, monospace" font-size="13" fill="#9FADB3">#D1BD88</text>
<rect x="440" y="104" width="128" height="112" fill="#90B18E"/>
<text x="440" y="242" font-size="16" font-weight="600">Fern</text>
<text x="440" y="264" font-family="ui-monospace, monospace" font-size="13" fill="#9FADB3">#90B18E</text>
<rect x="576" y="104" width="128" height="112" fill="#8BB2E4"/>
<text x="576" y="242" font-size="16" font-weight="600">Sound</text>
<text x="576" y="264" font-family="ui-monospace, monospace" font-size="13" fill="#9FADB3">#8BB2E4</text>
<rect x="712" y="104" width="128" height="112" fill="#72B1BF"/>
<text x="712" y="242" font-size="16" font-weight="600">Tidepool</text>
<text x="712" y="264" font-family="ui-monospace, monospace" font-size="13" fill="#9FADB3">#72B1BF</text>
<rect x="848" y="104" width="128" height="112" fill="#AAA3D6"/>
<text x="848" y="242" font-size="16" font-weight="600">Lavender</text>
<text x="848" y="264" font-family="ui-monospace, monospace" font-size="13" fill="#9FADB3">#AAA3D6</text>
<text x="32" y="318" font-size="14" fill="#9FADB3">Shore</text>
<rect x="32" y="334" width="101.333" height="48" fill="#18242F"/>
<rect x="133.333" y="334" width="101.333" height="48" fill="#2A3A46"/>
<rect x="234.667" y="334" width="101.333" height="48" fill="#4E5C68"/>
<text x="352" y="318" font-size="14" fill="#9FADB3">Driftwood</text>
<rect x="352" y="334" width="101.333" height="48" fill="#C1CCD3"/>
<rect x="453.333" y="334" width="101.333" height="48" fill="#9FADB3"/>
<rect x="554.667" y="334" width="101.333" height="48" fill="#87959C"/>
<text x="672" y="318" font-size="14" fill="#9FADB3">Horizon</text>
<rect x="672" y="334" width="76" height="48" fill="#B2BFDB"/>
<rect x="748" y="334" width="76" height="48" fill="#8194BA"/>
<rect x="824" y="334" width="76" height="48" fill="#496594"/>
<rect x="900" y="334" width="76" height="48" fill="#31466C"/>
</g>
</svg>
